<svg width="64" height="64" viewBox="0 0 64 64" fill="none" xmlns="http://www.w3.org/2000/svg">
  <rect width="64" height="64" rx="14" fill="#5A3825"/>
  <path d="M20 27H42V38C42 44.075 37.075 49 31 49C24.925 49 20 44.075 20 38V27Z" fill="#F7E8D0"/>
  <path d="M42 31H45C48.314 31 51 33.686 51 37C51 40.314 48.314 43 45 43H41.5" stroke="#F7E8D0" stroke-width="4" stroke-linecap="round"/>
  <path d="M24 17C24 20 22 20 22 23" stroke="#C98542" stroke-width="3" stroke-linecap="round"/>
  <path d="M32 14C32 18 30 18 30 22" stroke="#C98542" stroke-width="3" stroke-linecap="round"/>
  <path d="M40 17C40 20 38 20 38 23" stroke="#C98542" stroke-width="3" stroke-linecap="round"/>
  <path d="M18 50H45" stroke="#C98542" stroke-width="4" stroke-linecap="round"/>
</svg>
